{"title":"Dinner For Schmucks PPVRip 7SPEED","uid":5991305,"size":739780413,"categoryP":"video","categoryS":"movies","magnet":"?xt=urn:btih:322bb4bc5f4a7fb97ba276e6c682a1ebf7dbdce1&amp;dn=Dinner+For+Schmucks+PPVRip+7SPEED&amp;tr=udp%3A%2F%2Ftracker.openbittorrent.com%3A80&amp;tr=udp%3A%2F%2Fopen.demonii.com%3A1337&amp;tr=udp%3A%2F%2Ftracker.coppersurfer.tk%3A6969&amp;tr=udp%3A%2F%2Fexodus.desync.com%3A6969","seeders":1,"leechers":0,"uploader":"IwannaFan2","files":7,"time":1290898946,"description":"Filename:\nDinner For Schmucks PPVRip 7SPEED\n &lt;a href=&quot;\nhttp://www.imdb.com/title/tt0427152/&quot; rel=&quot;nofollow&quot; target=&quot;_NEW&quot;&gt;\nhttp://www.imdb.com/title/tt0427152/&lt;/a&gt;\n\nVideo\nID                               : 0\nFormat                           : MPEG-4 Visual\nFormat settings, BVOP            : Yes\nFormat settings, QPel            : No\nFormat settings, GMC             : No warppoints\nFormat settings, Matrix          : Default (H.263)\nCodec ID                         : DX50\nCodec ID/Hint                    : DivX 5\nDuration                         : 1h 53mn\nBit rate                         : 724 Kbps\nWidth                            : 720 pixels\nHeight                           : 480 pixels\nDisplay aspect ratio             : 4:3\nFrame rate                       : 29.970 fps\nStandard                         : NTSC\nColor space                      : YUV\nChroma subsampling               : 4:2:0\nBit depth                        : 8 bits\nScan type                        : Progressive\nBits/(Pixel*Frame)               : 0.070\nStream size                      : 587 MiB (84%)\nWriting library                  : DivX 2151n\n\nAudio\nID                               : 1\nFormat                           : MPEG Audio\nFormat version                   : Version 1\nFormat profile                   : Layer 3\nCodec ID                         : 55\nCodec ID/Hint                    : MP3\nDuration                         : 1h 53mn\nBit rate mode                    : Constant\nBit rate                         : 128 Kbps\nChannel(s)                       : 2 channels\nSampling rate                    : 48.0 KHz\nStream size                      : 104 MiB (15%)\nAlignment                        : Aligned on interleaves\nInterleave, duration             : 33 ms (1.00 video frame)\n\nThanks to IFLIX for the source.\n","torrent":{"xt":"urn:btih:322bb4bc5f4a7fb97ba276e6c682a1ebf7dbdce1","amp;dn":"Dinner+For+Schmucks+PPVRip+7SPEED","amp;tr":["udp%3A%2F%2Ftracker.openbittorrent.com%3A80","udp%3A%2F%2Fopen.demonii.com%3A1337","udp%3A%2F%2Ftracker.coppersurfer.tk%3A6969","udp%3A%2F%2Fexodus.desync.com%3A6969"],"infoHash":"322bb4bc5f4a7fb97ba276e6c682a1ebf7dbdce1","infoHashBuffer":{"type":"Buffer","data":[50,43,180,188,95,74,127,185,123,162,118,230,198,130,161,235,247,219,220,225]},"announce":[],"urlList":[]}}